<?xml version="1.0" encoding="UTF-8"?>
<svg id="Layer_2" data-name="Layer 2" xmlns="http://www.w3.org/2000/svg" viewBox="0 0 566.93 118.03">
  <defs>
    <style>
      .cls-1 {
        fill-rule: evenodd;
      }

      .cls-1, .cls-2 {
        fill: #0ea5e9;
      }
    </style>
  </defs>
  <g id="Layer_1-2" data-name="Layer 1">
    <g>
      <g>
        <path class="cls-2" d="M303.48,108.28c-.64-.81-1.38-1.44-2.25-1.86-.87-.43-1.99-.88-3.38-1.35-1.38-.45-2.4-.86-3.06-1.25-.65-.39-.97-.93-.97-1.62,0-.63.19-1.12.58-1.45.38-.34.89-.51,1.53-.51.73,0,1.33.2,1.8.6.47.39.72.94.76,1.63h5.66c-.1-2.01-.88-3.59-2.32-4.72-1.45-1.13-3.36-1.7-5.72-1.7s-4.21.57-5.66,1.7c-1.44,1.13-2.17,2.69-2.17,4.69,0,1.35.32,2.44.95,3.27.63.84,1.39,1.47,2.26,1.9.88.43,2.01.85,3.4,1.28.95.29,1.69.54,2.21.77.52.22.96.51,1.32.85.35.35.53.79.53,1.32,0,.63-.22,1.12-.67,1.48-.45.36-1.06.54-1.84.54s-1.36-.21-1.83-.63c-.47-.42-.74-1.03-.82-1.82h-5.57c.04,1.41.43,2.61,1.18,3.61.74,1,1.74,1.75,2.98,2.26,1.24.51,2.65.76,4.22.76s3-.29,4.19-.88c1.18-.59,2.08-1.39,2.7-2.39s.93-2.11.93-3.33c0-1.28-.31-2.33-.94-3.15Z"/>
        <path class="cls-2" d="M305.86,96.36v4.19h5.69v17.27h5.22v-17.27h5.69v-4.19h-16.6Z"/>
        <path class="cls-2" d="M337.13,96.36v12.84c0,1.28-.32,2.27-.98,2.96-.65.7-1.59,1.04-2.81,1.04s-2.15-.34-2.78-1.04c-.63-.69-.95-1.68-.95-2.96v-12.84h-5.22v12.81c0,1.91.38,3.54,1.16,4.87.77,1.34,1.83,2.34,3.16,3,1.34.66,2.85.99,4.54.99s3.23-.33,4.6-1.01c1.38-.67,2.47-1.67,3.29-2.99.81-1.33,1.22-2.95,1.22-4.86v-12.81h-5.23Z"/>
        <path class="cls-2" d="M363.32,101.48c-.93-1.62-2.24-2.88-3.93-3.78-1.69-.89-3.67-1.34-5.93-1.34h-8.04v21.46h8.04c2.24,0,4.21-.45,5.91-1.35,1.7-.89,3.02-2.16,3.95-3.79.92-1.63,1.39-3.49,1.39-5.59s-.47-3.99-1.39-5.61ZM357.74,111.67c-1.1,1.08-2.64,1.62-4.62,1.62h-2.48v-12.47h2.48c1.98,0,3.52.55,4.62,1.65s1.65,2.64,1.65,4.62-.55,3.5-1.65,4.58Z"/>
        <path class="cls-2" d="M367.03,96.36v21.46h5.23v-21.46h-5.23Z"/>
        <path class="cls-2" d="M387.97,96.36l-4.13,8.99-4.16-8.99h-5.93l7.43,14.37v7.09h5.23v-7.09l7.43-14.37h-5.87Z"/>
        <path class="cls-2" d="M407.75,96.36h-6.06l-7.76,21.46h5.47l1.29-3.79h8l1.29,3.79h5.53l-7.76-21.46ZM402.06,109.99l2.63-7.85,2.66,7.85h-5.29Z"/>
      </g>
      <path class="cls-1" d="M354.44,18.01c-3.17-5.64-7.69-10.04-13.58-13.2-5.88-3.18-12.74-4.76-20.55-4.76h-31.18v74.81h31.18c7.81,0,14.67-1.64,20.55-4.92,5.89-3.27,10.41-7.76,13.58-13.47s4.75-12.12,4.75-19.23-1.58-13.59-4.75-19.23ZM330.77,49.6c-3.1,2.89-7.29,4.33-12.58,4.33h-5.59V20.55h5.59c5.29,0,9.48,1.44,12.58,4.32,3.1,2.9,4.65,7.01,4.65,12.37s-1.55,9.48-4.65,12.36Z"/>
      <path class="cls-1" d="M411.08.05h-27.05l-27.38,74.81h24.63l3.7-11.31h24.93l3.7,11.31h24.73L411.08.05ZM390.68,45.91l6.77-20.82,6.75,20.82h-13.52Z"/>
      <polygon class="cls-1" points="430.43 .05 430.43 18.65 450.09 18.65 450.09 74.86 473.54 74.86 473.54 18.65 493.41 18.65 493.41 .05 430.43 .05"/>
      <path class="cls-1" d="M539.86.05h-27.05l-27.37,74.81h24.62l3.7-11.31h24.93l3.71,11.31h24.53v-.54L539.86.05ZM519.47,45.91l6.76-20.82,6.76,20.82h-13.52Z"/>
      <path class="cls-1" d="M203.75,0h-32.41v33.92C161.96,13.9,141.61,0,118.09,0h-32.42v33.94C76.3,13.9,55.96,0,32.42,0H0v117.57h32.42c23.53,0,43.88-13.91,53.25-33.95v33.95h32.42c23.52,0,43.87-13.9,53.25-33.91v33.9h32.41c32.41,0,58.79-26.37,58.79-58.78S236.16,0,203.75,0ZM63.34,78.43c0,2.49-1.57,4.64-3.77,5.15l-30.93,7.15c-2.43.56-4.71-1.5-4.71-4.25V30.98c0-2.75,2.28-4.8,4.71-4.24l30.93,7.15c2.2.5,3.77,2.66,3.77,5.15v39.39ZM141.73,71.86c0,1.66-1.05,3.1-2.52,3.44l-20.65,4.76c-1.63.38-3.15-.99-3.15-2.83v-36.99c0-1.84,1.52-3.21,3.15-2.83l20.65,4.76c1.47.34,2.52,1.77,2.52,3.43v26.26Z"/>
    </g>
  </g>
</svg>
